<?xml version="1.0" encoding="utf-8"?><!-- Generator: Adobe Illustrator 22.1.0, SVG Export Plug-In . SVG Version: 6.00 Build 0)  -->
<svg version="1.1" id="Layer_1" xmlns="http://www.w3.org/2000/svg" x="0px" y="0px"
    viewBox="0 0 17 17" style="enable-background:new 0 0 17 17;" xml:space="preserve">
<style type="text/css">
	.st0{fill:none;}
</style>
    <path class="st0" d="M0-7h24v24H0V-7z" />
    <path d="M2.8,0.7c-0.4,0.4-0.4,1,0,1.4l2.7,2.7l1.4-1.4L4.2,0.7C3.8,0.3,3.2,0.3,2.8,0.7z M11.8,12.4H9.5V6.8l4.7-4.7
	c0.4-0.4,0.4-1,0-1.4c-0.4-0.4-1-0.4-1.4,0L8.1,5.4C7.7,5.8,7.5,6.3,7.5,6.8v5.6H5.2c-0.4,0-0.7,0.5-0.4,0.8l3.3,3.3
	c0.2,0.2,0.5,0.2,0.7,0l3.3-3.3C12.5,12.9,12.3,12.4,11.8,12.4z" />
</svg>
